{"title":"Wuthering Heights 2011 SCR AC3 XViD - INSPiRAL","uid":7006946,"size":2296218324,"categoryP":"video","categoryS":"movies","magnet":"?xt=urn:btih:f35bd13f19c7ee6046be742699eb1d6417debf5b&amp;dn=Wuthering+Heights+2011+SCR+AC3+XViD+-+INSPiRAL&amp;tr=udp%3A%2F%2Ftracker.openbittorrent.com%3A80&amp;tr=udp%3A%2F%2Fopen.demonii.com%3A1337&amp;tr=udp%3A%2F%2Ftracker.coppersurfer.tk%3A6969&amp;tr=udp%3A%2F%2Fexodus.desync.com%3A6969","seeders":0,"leechers":1,"uploader":"TvTeam","files":30,"time":1328300978,"description":". \n &lt;a href=&quot;\nhttp://www.torrenting.com&quot; rel=&quot;nofollow&quot; target=&quot;_NEW&quot;&gt;\nhttp://www.torrenting.com&lt;/a&gt;          :     Once &amp; For all ;)\n\n\n               www . Torrenting . Com \n\n(((((((((((((= Enjoy No RAR releases =))))))))))))))))))))\n\n\n...................................NFO:....................................\n\n.[IMG]http://i.imgur.com/2mcr9.png[/IMG]\n\n \nTITLE: \n\nWuthering Heights 2011 SCR AC3 XViD - INSPiRAL\n\nIMDB: \n &lt;a href=&quot;\nhttp://www.imdb.com/title/tt1181614/&quot; rel=&quot;nofollow&quot; target=&quot;_NEW&quot;&gt;\nhttp://www.imdb.com/title/tt1181614/&lt;/a&gt;\n\n\nSOURCES:\n\nVIDEO - MPEG FILES  THANKS\nAUDIO - MPEG FILES  THANKS\nSUBS  - None Add\n\nSTATS:\n\nVideo\nID                               : 0\nFormat                           : MPEG-4 Visual\nFormat profile                   : Advanced Simple@L5\nFormat settings, BVOP            : 2\nFormat settings, QPel            : No\nFormat settings, GMC             : No warppoints\nFormat settings, Matrix          : Default (MPEG)\nMuxing mode                      : Packed bitstream\nCodec ID                         : XVID\nCodec ID/Hint                    : XviD\nDuration                         : 2h 3mn\nBit rate                         : 1 901 Kbps\nWidth                            : 688 pixels\nHeight                           : 512 pixels\nDisplay aspect ratio             : 4:3\nFrame rate                       : 25.000 fps\nColor space                      : YUV\nChroma subsampling               : 4:2:0\nBit depth                        : 8 bits\nScan type                        : Progressive\nCompression mode                 : Lossy\nBits/(Pixel*Frame)               : 0.216\nStream size                      : 1.64 GiB (93%)\nWriting library                  : XviD 64\n\nAudio\nID                               : 1\nFormat                           : AC-3\nFormat/Info                      : Audio Coding 3\nMode extension                   : CM (complete main)\nCodec ID                         : 2000\nDuration                         : 2h 3mn\nBit rate mode                    : Constant\nBit rate                         : 128 Kbps\nChannel(s)                       : 2 channels\nChannel positions                : Front: L R\nSampling rate                    : 48.0 KHz\nBit depth                        : 16 bits\nCompression mode                 : Lossy\nStream size                      : 113 MiB (6%)\nAlignment                        : Aligned on interleaves\nInterleave, duration             : 40 ms (1.00 video frame)\nInterleave, preload duration     : 512 ms\n\n\nNOTES:\n\nOnce again thanks too special friends for the mpeg files :) \nSource was alot better than the deep blue sea one.Audio once again ....AC3 track but not 5.1.\nWith this release only needed some lov'in ,brightness,contrast,sharpen rgbeq and thats it and only slight changes in them.\nAudio stripped and remuxed.\nEnjoy :)\n\n\nSCREENS:\n\n[IMG]http://i.imgur.com/kAunF.png[/IMG]\n[IMG]http://i.imgur.com/9MU7n.png[/IMG]\n[IMG]http://i.imgur.com/6AqI5.png[/IMG]\n[IMG]http://i.imgur.com/BT4nk.png[/IMG]\n\nGREETZ: \n\nPast,Present and Future\n\n[IMG]http://i.imgur.com/2mcr9.png[/IMG]","torrent":{"xt":"urn:btih:f35bd13f19c7ee6046be742699eb1d6417debf5b","amp;dn":"Wuthering+Heights+2011+SCR+AC3+XViD+-+INSPiRAL","amp;tr":["udp%3A%2F%2Ftracker.openbittorrent.com%3A80","udp%3A%2F%2Fopen.demonii.com%3A1337","udp%3A%2F%2Ftracker.coppersurfer.tk%3A6969","udp%3A%2F%2Fexodus.desync.com%3A6969"],"infoHash":"f35bd13f19c7ee6046be742699eb1d6417debf5b","infoHashBuffer":{"type":"Buffer","data":[243,91,209,63,25,199,238,96,70,190,116,38,153,235,29,100,23,222,191,91]},"announce":[],"urlList":[]}}